<svg width="259" height="259" viewBox="0 0 259 259" fill="none" xmlns="http://www.w3.org/2000/svg">
<rect width="259" height="259" rx="60" fill="white"/>
<path d="M84.9152 93.0972V82H82.9641C23.1294 82 22.4791 176 82.9641 176H131.742C162.31 175.347 161.009 124.431 131.742 124.431C106.378 124.431 106.378 93.0972 129.791 93.0972H183.122C200.032 94.4028 196.78 124.431 183.122 124.431H170.115L205.235 176H220.844L190.276 132.917C214.991 125.083 211.739 82 183.122 82H129.791C88.8175 82 92.0694 134.875 126.539 134.875C149.302 134.875 145.4 164.903 129.791 164.903H84.9152C40.0392 164.903 36.137 93.0972 84.9152 93.0972Z" fill="black" stroke="black" stroke-width="5"/>
</svg>
